<svg width="14" height="14" viewBox="0 0 14 14" fill="none" xmlns="http://www.w3.org/2000/svg">
<g clip-path="url(#clip0_162_467)">
<path d="M3.70039 11.9904L3.92925 12.1035C4.883 12.6691 5.95111 12.933 7.01926 12.933C10.3763 12.933 13.1229 10.2182 13.1229 6.90011C13.1229 5.31648 12.4743 3.77054 11.3299 2.63935C10.1855 1.50816 8.65956 0.867188 7.01926 0.867188C3.66227 0.867188 0.91559 3.582 0.953762 6.93784C0.953762 8.06897 1.29709 9.16248 1.86929 10.1051L2.02186 10.3313L1.41155 12.556L3.70039 11.9904Z" fill="#00E676"/>
<path d="M11.9784 2.03611C10.6813 0.716433 8.88841 0 7.05731 0C3.1663 0 0.0381719 3.12957 0.0762891 6.93784C0.0762891 8.14443 0.419617 9.31335 0.991867 10.3691L0 13.9511L3.70032 13.0085C4.7303 13.5741 5.8747 13.8381 7.0192 13.8381C10.8721 13.8381 14.0002 10.7084 14.0002 6.90022C14.0002 5.0526 13.2754 3.31811 11.9784 2.03611H11.9784ZM7.05731 12.6692C6.02733 12.6692 4.99734 12.4053 4.11994 11.8774L3.89107 11.7643L1.67852 12.3298L2.25072 10.1806L2.09814 9.95438C0.419617 7.2773 1.22073 3.73287 3.96736 2.07378C6.71398 0.414757 10.2617 1.20659 11.9403 3.92141C13.6187 6.63622 12.8176 10.1429 10.071 11.8019C9.19357 12.3675 8.12547 12.6691 7.05731 12.6691V12.6692ZM10.4143 8.48389L9.99469 8.29535C9.99469 8.29535 9.38437 8.03141 9.00287 7.84287C8.9647 7.84287 8.92659 7.80514 8.88841 7.80514C8.77395 7.80514 8.69766 7.84287 8.62138 7.8806C8.62138 7.8806 8.58326 7.91827 8.04918 8.52157C8.01101 8.59697 7.93472 8.6347 7.85843 8.6347H7.82026C7.78214 8.6347 7.70585 8.59697 7.66768 8.5593L7.47693 8.48389C7.05731 8.29535 6.67587 8.06908 6.37066 7.76746C6.29437 7.69205 6.17991 7.61665 6.10362 7.54124C5.83658 7.2773 5.56954 6.97562 5.37884 6.63627L5.34067 6.56087C5.30255 6.52314 5.30255 6.48546 5.26438 6.41005C5.26438 6.33465 5.26438 6.25924 5.30255 6.22151C5.30255 6.22151 5.45513 6.03297 5.56954 5.91989C5.64588 5.84443 5.684 5.73135 5.76029 5.65595C5.83658 5.54281 5.87475 5.392 5.83658 5.27887C5.79846 5.09032 5.34067 4.07227 5.22627 3.84605C5.14992 3.73292 5.07369 3.69524 4.95923 3.65751H4.53961C4.46327 3.65751 4.38703 3.69524 4.31069 3.69524L4.27252 3.73292C4.19623 3.77065 4.11994 3.84605 4.04365 3.88373C3.96736 3.95919 3.92919 4.03454 3.8529 4.11C3.58586 4.44935 3.43328 4.86411 3.43328 5.27887C3.43328 5.58049 3.50957 5.88216 3.62403 6.14611L3.6622 6.25924C4.00553 6.97562 4.46327 7.61665 5.07369 8.18222L5.22627 8.33303C5.34067 8.44616 5.45513 8.52157 5.53142 8.63465C6.33254 9.31341 7.24806 9.80357 8.27805 10.0675C8.39251 10.1052 8.54509 10.1052 8.65955 10.1429H9.04099C9.23174 10.1429 9.46061 10.0675 9.61324 9.99211C9.72765 9.9167 9.80394 9.9167 9.88023 9.8413L9.95657 9.76584C10.0329 9.69043 10.1091 9.65276 10.1854 9.57735C10.2617 9.50195 10.338 9.42654 10.3762 9.35108C10.4525 9.20027 10.4906 9.01173 10.5288 8.82324V8.5593C10.5288 8.5593 10.4906 8.52157 10.4143 8.48389Z" fill="white"/>
</g>
<defs>
<clipPath id="clip0_162_467">
<rect width="14" height="14" fill="white"/>
</clipPath>
</defs>
</svg>
